# xmcd CD database file
#
# Track frame offsets:
#	187
#	13757
#	27330
#	44522
#	58987
#	82295
#	96830
#	114370
#	136000
#	156782
#	177580
#	195347
#	212035
#	226222
#
# Disc length: 3298 seconds
#
# Revision: 6
# Processed by: cddbd v1.5.2PL0 Copyright (c) Steve Scherf et al.
# Submitted via: CDex 1.79
#
DISCID=be0ce00e
DTITLE=Joe Ely - Live Shots
DYEAR=1980
DGENRE=Country
TTITLE0=Fingernails
TTITLE1=Midnight Shift
TTITLE2=Honky Tonk Masquerade
TTITLE3=Honky Tonkin'
TTITLE4=Long Snake Moan
TTITLE5=I Had My Hopes Up High
TTITLE6=She Never Spoke Spanish To Me
TTITLE7=Johnny's Blues
TTITLE8=Fools Fall In Love
TTITLE9=Boxcars
TTITLE10=Crazy Lemon
TTITLE11=Not Fade Away
TTITLE12=Treat Me Like A Saturday Night
TTITLE13=Wishin' For You
EXTD=YEAR: 1980
EXTT0=
EXTT1=
EXTT2=
EXTT3=
EXTT4=
EXTT5=
EXTT6=
EXTT7=
EXTT8=
EXTT9=
EXTT10=
EXTT11=
EXTT12=
EXTT13=
PLAYORDER=
